<?xml version="1.0" encoding="UTF-8" standalone="no"?>
<!DOCTYPE svg PUBLIC "-//W3C//DTD SVG 1.1//EN" "http://www.w3.org/Graphics/SVG/1.1/DTD/svg11.dtd">
<svg version="1.1" xmlns="http://www.w3.org/2000/svg" xmlns:xlink="http://www.w3.org/1999/xlink" preserveAspectRatio="xMidYMid meet" viewBox="0 0 640 640" width="1000" height="1000"><defs><path d="M120 50L520 50L520 580L120 580L120 50Z" id="c96Gu1kgJ"></path><clipPath id="clipbBON69pGR"><use xlink:href="#c96Gu1kgJ" opacity="1"></use></clipPath><path d="M47.52 563.83L592.48 563.83L592.48 580L47.52 580L47.52 563.83Z" id="a14XVWzo8S"></path><path d="M402 192C402 237.26 365.26 274 320 274C274.74 274 238 237.26 238 192C238 146.74 274.74 110 320 110C365.26 110 402 146.74 402 192Z" id="c2n8yRhhl"></path><clipPath id="clipa2EWoM1k2n"><use xlink:href="#c2n8yRhhl" opacity="1"></use></clipPath><path d="M373.67 192.5C373.67 222.12 349.62 246.17 320 246.17C290.38 246.17 266.33 222.12 266.33 192.5C266.33 162.88 290.38 138.83 320 138.83C349.62 138.83 373.67 162.88 373.67 192.5Z" id="a1eHNkQJVT"></path><clipPath id="clipalpEY18kU"><use xlink:href="#a1eHNkQJVT" opacity="1"></use></clipPath><path d="M432.88 420.13C432.88 482.42 382.3 533 320 533C257.7 533 207.12 482.42 207.12 420.13C207.12 357.83 257.7 307.25 320 307.25C382.3 307.25 432.88 357.83 432.88 420.13Z" id="e3FAET2XBM"></path><clipPath id="clipb1bToSSOxY"><use xlink:href="#e3FAET2XBM" opacity="1"></use></clipPath><path d="M405.75 420C405.75 467.33 367.33 505.75 320 505.75C272.67 505.75 234.25 467.33 234.25 420C234.25 372.67 272.67 334.25 320 334.25C367.33 334.25 405.75 372.67 405.75 420Z" id="aMIEyFbK"></path><clipPath id="clipa1pAJDiYTz"><use xlink:href="#aMIEyFbK" opacity="1"></use></clipPath><path d="M325.79 368.87L327.79 369.16L329.77 369.52L331.72 369.97L333.65 370.48L335.54 371.07L337.4 371.73L339.23 372.46L341.01 373.26L342.77 374.13L344.48 375.06L346.15 376.05L347.78 377.11L349.37 378.22L350.91 379.4L352.4 380.63L353.84 381.92L355.24 383.26L356.58 384.66L357.87 386.1L359.1 387.59L360.28 389.13L361.39 390.72L362.45 392.35L363.44 394.02L364.37 395.73L365.24 397.49L366.04 399.27L366.77 401.1L367.43 402.96L368.02 404.85L368.53 406.78L368.98 408.73L369.34 410.71L369.63 412.71L369.83 414.75L369.96 416.8L370 418.87L369.98 420L355.31 420L355.32 419.68L355.29 418.23L355.2 416.79L355.06 415.36L354.86 413.96L354.6 412.57L354.29 411.2L353.93 409.85L353.52 408.52L353.05 407.22L352.54 405.94L351.98 404.68L351.37 403.46L350.72 402.25L350.02 401.08L349.28 399.94L348.5 398.83L347.68 397.75L346.81 396.7L345.91 395.69L344.97 394.71L343.99 393.77L342.98 392.87L341.93 392L340.85 391.18L339.74 390.4L338.6 389.66L337.43 388.96L336.23 388.31L335 387.7L333.74 387.14L332.46 386.63L331.16 386.16L329.83 385.75L328.48 385.39L327.11 385.08L325.73 384.82L324.32 384.62L322.89 384.48L321.45 384.39L320 384.36L318.55 384.39L317.11 384.48L315.68 384.62L314.27 384.82L312.89 385.08L311.52 385.39L310.17 385.75L308.84 386.16L307.54 386.63L306.26 387.14L305 387.7L303.77 388.31L302.57 388.96L301.4 389.66L300.26 390.4L299.15 391.18L298.07 392L297.02 392.87L296.01 393.77L295.03 394.71L294.09 395.69L293.19 396.7L292.32 397.75L291.5 398.83L290.72 399.94L289.98 401.08L289.28 402.25L288.63 403.46L288.02 404.68L287.46 405.94L286.95 407.22L286.48 408.52L286.07 409.85L285.71 411.2L285.4 412.57L285.14 413.96L284.94 415.36L284.8 416.79L284.71 418.23L284.68 419.68L284.69 420L269.27 420L269.25 418.87L269.29 416.8L269.42 414.75L269.62 412.71L269.91 410.71L270.27 408.73L270.72 406.78L271.23 404.85L271.82 402.96L272.48 401.1L273.21 399.27L274.01 397.49L274.88 395.73L275.81 394.02L276.8 392.35L277.86 390.72L278.97 389.13L280.15 387.59L281.38 386.1L282.67 384.66L284.01 383.26L285.41 381.92L286.85 380.63L288.34 379.4L289.88 378.22L291.47 377.11L293.1 376.05L294.77 375.06L296.48 374.13L298.24 373.26L300.02 372.46L301.85 371.73L303.71 371.07L305.6 370.48L307.53 369.97L309.48 369.52L311.46 369.16L313.46 368.87L315.5 368.67L317.55 368.54L319.63 368.5L321.7 368.54L323.75 368.67L323.75 368.67L325.79 368.87Z" id="c5xK9O20N"></path><clipPath id="clipb20ThNyeD"><use xlink:href="#c5xK9O20N" opacity="1"></use></clipPath><path d="M197.9 103.95C197.9 117.17 187.17 127.9 173.95 127.9C160.73 127.9 150 117.17 150 103.95C150 90.73 160.73 80 173.95 80C187.17 80 197.9 90.73 197.9 103.95Z" id="cdajtM8oG"></path><clipPath id="clipdbdxhRIQOV"><use xlink:href="#cdajtM8oG" opacity="1"></use></clipPath><path d="M197.9 526.05C197.9 539.27 187.17 550 173.95 550C160.73 550 150 539.27 150 526.05C150 512.83 160.73 502.1 173.95 502.1C187.17 502.1 197.9 512.83 197.9 526.05Z" id="d2ogFiJxnl"></path><clipPath id="clipe2tDP6tpx"><use xlink:href="#d2ogFiJxnl" opacity="1"></use></clipPath><path d="M490 103.95C490 117.17 479.27 127.9 466.05 127.9C452.83 127.9 442.1 117.17 442.1 103.95C442.1 90.73 452.83 80 466.05 80C479.27 80 490 90.73 490 103.95Z" id="b1HLM3vPye"></path><clipPath id="clipb2po1tMYo"><use xlink:href="#b1HLM3vPye" opacity="1"></use></clipPath><path d="M490 526.05C490 539.27 479.27 550 466.05 550C452.83 550 442.1 539.27 442.1 526.05C442.1 512.83 452.83 502.1 466.05 502.1C479.27 502.1 490 512.83 490 526.05Z" id="a1kGQ5boaX"></path><clipPath id="cliphaQAagCwlS"><use xlink:href="#a1kGQ5boaX" opacity="1"></use></clipPath><path d="M160 140L180 140L180 323.6L160 323.6L160 140Z" id="ccsCcdAw3"></path><path d="M460 140L480 140L480 323.6L460 323.6L460 140Z" id="b1yLdgbnz3"></path><path d="M160 357L180 357L180 460L160 460L160 357Z" id="a4wL6JS52"></path><path d="M460 357L480 357L480 460L460 460L460 357Z" id="blnBzPMen"></path></defs><g><g><g><g clip-path="url(#clipbBON69pGR)"><use xlink:href="#c96Gu1kgJ" opacity="1" fill-opacity="0" stroke="#000000" stroke-width="32" stroke-opacity="1"></use></g></g><g><use xlink:href="#a14XVWzo8S" opacity="1" fill="#000000" fill-opacity="1"></use></g><g><g clip-path="url(#clipa2EWoM1k2n)"><use xlink:href="#c2n8yRhhl" opacity="1" fill-opacity="0" stroke="#000000" stroke-width="32" stroke-opacity="1"></use></g></g><g><g clip-path="url(#clipalpEY18kU)"><use xlink:href="#a1eHNkQJVT" opacity="1" fill-opacity="0" stroke="#000000" stroke-width="32" stroke-opacity="1"></use></g></g><g><g clip-path="url(#clipb1bToSSOxY)"><use xlink:href="#e3FAET2XBM" opacity="1" fill-opacity="0" stroke="#000000" stroke-width="32" stroke-opacity="1"></use></g></g><g><g clip-path="url(#clipa1pAJDiYTz)"><use xlink:href="#aMIEyFbK" opacity="1" fill-opacity="0" stroke="#000000" stroke-width="32" stroke-opacity="1"></use></g></g><g><g clip-path="url(#clipb20ThNyeD)"><use xlink:href="#c5xK9O20N" opacity="1" fill-opacity="0" stroke="#000000" stroke-width="32" stroke-opacity="1"></use></g></g><g><g clip-path="url(#clipdbdxhRIQOV)"><use xlink:href="#cdajtM8oG" opacity="1" fill-opacity="0" stroke="#000000" stroke-width="32" stroke-opacity="1"></use></g></g><g><g clip-path="url(#clipe2tDP6tpx)"><use xlink:href="#d2ogFiJxnl" opacity="1" fill-opacity="0" stroke="#000000" stroke-width="32" stroke-opacity="1"></use></g></g><g><g clip-path="url(#clipb2po1tMYo)"><use xlink:href="#b1HLM3vPye" opacity="1" fill-opacity="0" stroke="#000000" stroke-width="32" stroke-opacity="1"></use></g></g><g><g clip-path="url(#cliphaQAagCwlS)"><use xlink:href="#a1kGQ5boaX" opacity="1" fill-opacity="0" stroke="#000000" stroke-width="32" stroke-opacity="1"></use></g></g><g><use xlink:href="#ccsCcdAw3" opacity="1" fill="#000000" fill-opacity="0.98"></use></g><g><use xlink:href="#b1yLdgbnz3" opacity="1" fill="#000000" fill-opacity="0.98"></use></g><g><use xlink:href="#a4wL6JS52" opacity="1" fill="#000000" fill-opacity="0.98"></use></g><g><use xlink:href="#blnBzPMen" opacity="1" fill="#000000" fill-opacity="0.98"></use></g></g></g></svg>