<?xml version="1.0" encoding="UTF-8" standalone="no"?>
<!DOCTYPE svg PUBLIC "-//W3C//DTD SVG 1.1//EN" "http://www.w3.org/Graphics/SVG/1.1/DTD/svg11.dtd">
<svg version="1.1" xmlns="http://www.w3.org/2000/svg" xmlns:xlink="http://www.w3.org/1999/xlink" preserveAspectRatio="xMidYMid meet" viewBox="0 0 640 640" width="1000" height="1000"><defs><path d="M85.35 15.9L556.37 15.9L556.37 640L85.35 640L85.35 15.9Z" id="cJDEmg0yY"></path><clipPath id="clipbOPg7Lxi1"><use xlink:href="#cJDEmg0yY" opacity="1"></use></clipPath><path d="M0 620.96L641.72 620.96L641.72 640L0 640L0 620.96Z" id="c1KMl2h3w0"></path><path d="M417.42 183.11C417.42 236.4 374.15 279.67 320.86 279.67C267.57 279.67 224.3 236.4 224.3 183.11C224.3 129.82 267.57 86.55 320.86 86.55C374.15 86.55 417.42 129.82 417.42 183.11Z" id="heAFfYyVL"></path><clipPath id="clipd5A7ZPf7rk"><use xlink:href="#heAFfYyVL" opacity="1"></use></clipPath><path d="M384.06 183.7C384.06 218.58 355.74 246.89 320.86 246.89C285.98 246.89 257.67 218.58 257.67 183.7C257.67 148.82 285.98 120.5 320.86 120.5C355.74 120.5 384.06 148.82 384.06 183.7Z" id="pGv2AWkUE"></path><clipPath id="clipa2Q4e2hF0L"><use xlink:href="#pGv2AWkUE" opacity="1"></use></clipPath><path d="M453.78 451.74C453.78 525.1 394.22 584.66 320.86 584.66C247.5 584.66 187.94 525.1 187.94 451.74C187.94 378.38 247.5 318.82 320.86 318.82C394.22 318.82 453.78 378.38 453.78 451.74Z" id="h7MHjIT0E2"></path><clipPath id="clipekr3QrSXK"><use xlink:href="#h7MHjIT0E2" opacity="1"></use></clipPath><path d="M421.84 451.59C421.84 507.32 376.59 552.57 320.86 552.57C265.13 552.57 219.89 507.32 219.89 451.59C219.89 395.86 265.13 350.62 320.86 350.62C376.59 350.62 421.84 395.86 421.84 451.59Z" id="apEVn4a0d"></path><clipPath id="clipc2KIbVkn5s"><use xlink:href="#apEVn4a0d" opacity="1"></use></clipPath><path d="M325.28 391.15L327.67 391.39L330.04 391.73L332.37 392.15L334.67 392.67L336.93 393.28L339.16 393.97L341.35 394.75L343.5 395.61L345.61 396.55L347.67 397.57L349.69 398.67L351.66 399.84L353.57 401.08L355.44 402.4L357.26 403.78L359.01 405.23L360.71 406.75L362.36 408.33L363.93 409.97L365.45 411.67L366.9 413.43L368.29 415.24L369.6 417.11L370.85 419.03L372.02 421L373.11 423.02L374.13 425.08L375.07 427.19L375.93 429.34L376.71 431.53L377.41 433.75L378.01 436.02L378.53 438.32L378.96 440.65L379.3 443.01L379.54 445.41L379.69 447.82L379.74 450.27L379.71 451.59L362.44 451.59L362.45 451.22L362.42 449.5L362.31 447.81L362.14 446.13L361.91 444.47L361.6 442.84L361.24 441.23L360.81 439.64L360.33 438.08L359.78 436.54L359.18 435.03L358.52 433.56L357.81 432.11L357.04 430.7L356.22 429.32L355.34 427.97L354.42 426.66L353.45 425.39L352.43 424.16L351.37 422.96L350.26 421.81L349.11 420.71L347.92 419.64L346.69 418.63L345.42 417.66L344.11 416.73L342.76 415.86L341.38 415.04L339.97 414.27L338.52 413.56L337.04 412.9L335.54 412.29L334 411.75L332.44 411.26L330.85 410.84L329.24 410.47L327.6 410.17L325.95 409.93L324.27 409.76L322.57 409.66L320.86 409.63L319.15 409.66L317.45 409.76L315.77 409.93L314.12 410.17L312.48 410.47L310.87 410.84L309.28 411.26L307.72 411.75L306.19 412.29L304.68 412.9L303.2 413.56L301.75 414.27L300.34 415.04L298.96 415.86L297.61 416.73L296.3 417.66L295.03 418.63L293.8 419.64L292.61 420.71L291.46 421.81L290.35 422.96L289.29 424.16L288.27 425.39L287.3 426.66L286.38 427.97L285.51 429.32L284.68 430.7L283.92 432.11L283.2 433.56L282.54 435.03L281.94 436.54L281.39 438.08L280.91 439.64L280.48 441.23L280.12 442.84L279.82 444.47L279.58 446.13L279.41 447.81L279.31 449.5L279.27 451.22L279.28 451.59L261.13 451.59L261.1 450.27L261.15 447.82L261.3 445.41L261.54 443.01L261.88 440.65L262.31 438.32L262.82 436.02L263.43 433.75L264.13 431.53L264.9 429.34L265.76 427.19L266.71 425.08L267.72 423.02L268.82 421L269.99 419.03L271.24 417.11L272.55 415.24L273.94 413.43L275.39 411.67L276.9 409.97L278.48 408.33L280.12 406.75L281.82 405.23L283.58 403.78L285.4 402.4L287.26 401.08L289.18 399.84L291.15 398.67L293.17 397.57L295.23 396.55L297.34 395.61L299.49 394.75L301.68 393.97L303.91 393.28L306.17 392.67L308.47 392.15L310.8 391.73L313.16 391.39L315.56 391.15L317.98 391L320.42 390.95L322.86 391L325.28 391.15Z" id="cfvVihxjC"></path><clipPath id="clipiXDTIjkyK"><use xlink:href="#cfvVihxjC" opacity="1"></use></clipPath><path d="M177.09 79.43C177.09 95 164.45 107.64 148.88 107.64C133.32 107.64 120.68 95 120.68 79.43C120.68 63.86 133.32 51.23 148.88 51.23C164.45 51.23 177.09 63.86 177.09 79.43Z" id="b5ZjHfjG5F"></path><clipPath id="clipbaiejs3W"><use xlink:href="#b5ZjHfjG5F" opacity="1"></use></clipPath><path d="M177.09 576.47C177.09 592.04 164.45 604.67 148.88 604.67C133.32 604.67 120.68 592.04 120.68 576.47C120.68 560.9 133.32 548.26 148.88 548.26C164.45 548.26 177.09 560.9 177.09 576.47Z" id="c1TwQiJWT"></path><clipPath id="clipe4qPyPjkvs"><use xlink:href="#c1TwQiJWT" opacity="1"></use></clipPath><path d="M521.04 79.43C521.04 95 508.41 107.64 492.84 107.64C477.27 107.64 464.63 95 464.63 79.43C464.63 63.86 477.27 51.23 492.84 51.23C508.41 51.23 521.04 63.86 521.04 79.43Z" id="a17raLLPvq"></path><clipPath id="clipg73Oujm2X"><use xlink:href="#a17raLLPvq" opacity="1"></use></clipPath><path d="M521.04 576.47C521.04 592.04 508.41 604.67 492.84 604.67C477.27 604.67 464.63 592.04 464.63 576.47C464.63 560.9 477.27 548.26 492.84 548.26C508.41 548.26 521.04 560.9 521.04 576.47Z" id="a630q1OFIq"></path><clipPath id="clipdtALMrgrA"><use xlink:href="#a630q1OFIq" opacity="1"></use></clipPath><path d="M132.45 121.88L156 121.88L156 338.08L132.45 338.08L132.45 121.88Z" id="erv23yrX6"></path><path d="M485.72 121.88L509.27 121.88L509.27 338.08L485.72 338.08L485.72 121.88Z" id="b4AlLl7jyx"></path><path d="M132.45 377.41L156 377.41L156 498.69L132.45 498.69L132.45 377.41Z" id="alJkNA7zN"></path><path d="M485.72 377.41L509.27 377.41L509.27 498.69L485.72 498.69L485.72 377.41Z" id="jX3oyXjPq"></path></defs><g><g><g><g clip-path="url(#clipbOPg7Lxi1)"><use xlink:href="#cJDEmg0yY" opacity="1" fill-opacity="0" stroke="#000000" stroke-width="32" stroke-opacity="1"></use></g></g><g><use xlink:href="#c1KMl2h3w0" opacity="1" fill="#000000" fill-opacity="1"></use></g><g><g clip-path="url(#clipd5A7ZPf7rk)"><use xlink:href="#heAFfYyVL" opacity="1" fill-opacity="0" stroke="#000000" stroke-width="32" stroke-opacity="1"></use></g></g><g><g clip-path="url(#clipa2Q4e2hF0L)"><use xlink:href="#pGv2AWkUE" opacity="1" fill-opacity="0" stroke="#000000" stroke-width="32" stroke-opacity="1"></use></g></g><g><g clip-path="url(#clipekr3QrSXK)"><use xlink:href="#h7MHjIT0E2" opacity="1" fill-opacity="0" stroke="#000000" stroke-width="32" stroke-opacity="1"></use></g></g><g><g clip-path="url(#clipc2KIbVkn5s)"><use xlink:href="#apEVn4a0d" opacity="1" fill-opacity="0" stroke="#000000" stroke-width="32" stroke-opacity="1"></use></g></g><g><g clip-path="url(#clipiXDTIjkyK)"><use xlink:href="#cfvVihxjC" opacity="1" fill-opacity="0" stroke="#000000" stroke-width="32" stroke-opacity="1"></use></g></g><g><g clip-path="url(#clipbaiejs3W)"><use xlink:href="#b5ZjHfjG5F" opacity="1" fill-opacity="0" stroke="#000000" stroke-width="32" stroke-opacity="1"></use></g></g><g><g clip-path="url(#clipe4qPyPjkvs)"><use xlink:href="#c1TwQiJWT" opacity="1" fill-opacity="0" stroke="#000000" stroke-width="32" stroke-opacity="1"></use></g></g><g><g clip-path="url(#clipg73Oujm2X)"><use xlink:href="#a17raLLPvq" opacity="1" fill-opacity="0" stroke="#000000" stroke-width="32" stroke-opacity="1"></use></g></g><g><g clip-path="url(#clipdtALMrgrA)"><use xlink:href="#a630q1OFIq" opacity="1" fill-opacity="0" stroke="#000000" stroke-width="32" stroke-opacity="1"></use></g></g><g><use xlink:href="#erv23yrX6" opacity="1" fill="#000000" fill-opacity="0.98"></use></g><g><use xlink:href="#b4AlLl7jyx" opacity="1" fill="#000000" fill-opacity="0.98"></use></g><g><use xlink:href="#alJkNA7zN" opacity="1" fill="#000000" fill-opacity="0.98"></use></g><g><use xlink:href="#jX3oyXjPq" opacity="1" fill="#000000" fill-opacity="0.98"></use></g></g></g></svg>